<svg width="350" height="200" viewBox="0 0 507 390" fill="none" xmlns="http://www.w3.org/2000/svg">
<g clip-path="url(#clip0)">
<path d="M116.741 269.903L155.995 208.104L68.0851 152.14L22.6862 223.614L95.3987 269.903H116.741Z" fill="#F0F0F0"/>
<path d="M172.367 289.181H75.1345V269.587H172.367V289.181ZM76.3973 287.917H171.105V270.851H76.3973V287.917Z" fill="#3F3D56"/>
<path d="M160.371 285.705C163.858 285.705 166.685 282.875 166.685 279.384C166.685 275.893 163.858 273.063 160.371 273.063C156.884 273.063 154.057 275.893 154.057 279.384C154.057 282.875 156.884 285.705 160.371 285.705Z" fill="#34CADB"/>
<path d="M142.692 285.705C146.179 285.705 149.006 282.875 149.006 279.384C149.006 275.893 146.179 273.063 142.692 273.063C139.205 273.063 136.379 275.893 136.379 279.384C136.379 282.875 139.205 285.705 142.692 285.705Z" fill="#34CADB"/>
<path d="M125.014 285.705C128.501 285.705 131.328 282.875 131.328 279.384C131.328 275.893 128.501 273.063 125.014 273.063C121.527 273.063 118.7 275.893 118.7 279.384C118.7 282.875 121.527 285.705 125.014 285.705Z" fill="#34CADB"/>
<path d="M107.335 285.705C110.822 285.705 113.649 282.875 113.649 279.384C113.649 275.893 110.822 273.063 107.335 273.063C103.848 273.063 101.021 275.893 101.021 279.384C101.021 282.875 103.848 285.705 107.335 285.705Z" fill="#34CADB"/>
<path d="M89.6563 285.705C93.1433 285.705 95.9701 282.875 95.9701 279.384C95.9701 275.893 93.1433 273.063 89.6563 273.063C86.1693 273.063 83.3425 275.893 83.3425 279.384C83.3425 282.875 86.1693 285.705 89.6563 285.705Z" fill="#34CADB"/>
<path d="M287.91 71.4263V23.3874H311.903V0H194.466V117.569H294.856V106.074C294.856 103.931 295.277 101.809 296.096 99.8297C296.915 97.85 298.116 96.0512 299.629 94.536C301.143 93.0209 302.94 91.819 304.917 90.9989C306.895 90.1789 309.014 89.7569 311.154 89.7569H311.903V71.4263H287.91Z" fill="#F0F0F0"/>
<path d="M417.975 303.404H339.684V319.838H417.975V303.404Z" fill="#34CADB"/>
<path d="M435.022 222.496H320.111V237.666H435.022V222.496Z" fill="#F0F0F0"/>
<path d="M491.215 388.736H0V390H491.215V388.736Z" fill="#3F3D56"/>
<path d="M454.712 390H311.154C306.666 389.995 302.362 388.207 299.189 385.03C296.015 381.853 294.229 377.544 294.224 373.051V106.074C294.229 101.58 296.015 97.2722 299.189 94.0947C302.362 90.9172 306.666 89.1299 311.154 89.1248H454.712C459.201 89.1299 463.504 90.9172 466.678 94.0947C469.852 97.2722 471.637 101.58 471.643 106.074V373.051C471.637 377.544 469.852 381.853 466.678 385.03C463.504 388.207 459.201 389.995 454.712 390ZM311.154 90.3889C307.001 90.3937 303.018 92.0477 300.081 94.9882C297.144 97.9287 295.492 101.915 295.487 106.074V373.051C295.492 377.209 297.144 381.196 300.081 384.137C303.018 387.077 307.001 388.731 311.154 388.736H454.712C458.866 388.731 462.849 387.077 465.786 384.137C468.723 381.196 470.375 377.209 470.38 373.051V106.074C470.375 101.915 468.723 97.9287 465.786 94.9882C462.849 92.0477 458.866 90.3937 454.712 90.3889H311.154Z" fill="#3F3D56"/>
<path d="M365.886 101.767C365.137 101.767 364.404 101.544 363.781 101.128C363.158 100.711 362.673 100.119 362.386 99.4255C362.099 98.7325 362.024 97.97 362.171 97.2343C362.317 96.4986 362.678 95.8228 363.207 95.2924C363.737 94.7621 364.412 94.4009 365.147 94.2545C365.882 94.1082 366.644 94.1833 367.336 94.4703C368.028 94.7574 368.62 95.2435 369.036 95.8672C369.452 96.4908 369.674 97.2241 369.674 97.9742C369.673 98.9797 369.274 99.9437 368.564 100.655C367.853 101.366 366.89 101.766 365.886 101.767ZM365.886 95.4458C365.387 95.4458 364.898 95.5941 364.483 95.8719C364.068 96.1498 363.744 96.5446 363.553 97.0066C363.362 97.4686 363.312 97.977 363.409 98.4675C363.506 98.9579 363.747 99.4084 364.1 99.762C364.453 100.116 364.903 100.356 365.393 100.454C365.883 100.552 366.391 100.501 366.853 100.31C367.314 100.119 367.708 99.7947 367.986 99.3789C368.263 98.9631 368.412 98.4743 368.412 97.9742C368.411 97.3038 368.145 96.6612 367.671 96.1872C367.198 95.7131 366.556 95.4465 365.886 95.4458Z" fill="#3F3D56"/>
<path d="M403.138 97.342H375.357V98.6062H403.138V97.342Z" fill="#3F3D56"/>
<path d="M460.278 107.455V158.023C446.882 158.022 434.034 152.694 424.562 143.211C415.09 133.728 409.768 120.866 409.767 107.455H460.278Z" fill="#34CADB"/>
<path d="M460.909 372.933H304.958V106.823H460.909V372.933ZM306.22 371.669H459.646V108.087H306.22V371.669Z" fill="#3F3D56"/>
<path opacity="0.1" d="M423.658 154.862C433.073 154.862 440.705 147.221 440.705 137.796C440.705 128.37 433.073 120.729 423.658 120.729C414.243 120.729 406.61 128.37 406.61 137.796C406.61 147.221 414.243 154.862 423.658 154.862Z" fill="black"/>
<path d="M421.132 156.758C430.547 156.758 438.179 149.117 438.179 139.692C438.179 130.266 430.547 122.625 421.132 122.625C411.717 122.625 404.085 130.266 404.085 139.692C404.085 149.117 411.717 156.758 421.132 156.758Z" fill="#34CADB"/>
<path d="M335.895 117.569H311.903V126.418H335.895V117.569Z" fill="#3F3D56"/>
<path d="M349.154 201.637H325.162V210.486H349.154V201.637Z" fill="#3F3D56"/>
<path d="M441.336 234.506H325.162V218.071H441.336V234.506ZM326.425 233.241H440.073V219.335H326.425V233.241Z" fill="#3F3D56"/>
<path d="M435.022 270.535H320.111V285.705H435.022V270.535Z" fill="#F0F0F0"/>
<path d="M349.154 249.676H325.162V258.525H349.154V249.676Z" fill="#3F3D56"/>
<path d="M441.336 282.545H325.162V266.11H441.336V282.545ZM326.425 281.28H440.073V267.375H326.425V281.28Z" fill="#3F3D56"/>
<path d="M423.026 316.045H343.472V298.347H423.026V316.045ZM344.735 314.781H421.763V299.611H344.735V314.781Z" fill="#3F3D56"/>
<path d="M438.179 228.185C438.179 229.486 437.778 230.755 437.03 231.82C436.283 232.884 435.225 233.692 434.002 234.132C432.779 234.573 431.45 234.625 430.196 234.281C428.943 233.937 427.826 233.214 426.998 232.211L426.991 232.205C426.388 231.472 425.957 230.612 425.731 229.69C425.505 228.767 425.49 227.805 425.686 226.876C425.882 225.947 426.286 225.074 426.865 224.322C427.445 223.57 428.187 222.958 429.035 222.533C429.884 222.108 430.817 221.879 431.766 221.865C432.714 221.85 433.654 222.05 434.515 222.449C435.376 222.848 436.136 223.436 436.739 224.17C437.342 224.903 437.771 225.764 437.996 226.687C437.996 226.687 437.996 226.688 437.997 226.689C437.997 226.69 437.997 226.691 437.998 226.691C437.999 226.692 437.999 226.692 438 226.692C438.001 226.693 438.002 226.693 438.003 226.693C438.119 227.182 438.179 227.682 438.179 228.185Z" fill="#34CADB"/>
<path opacity="0.1" d="M438.179 228.185C438.179 229.486 437.778 230.756 437.03 231.82C436.283 232.885 435.225 233.692 434.002 234.133C432.779 234.573 431.45 234.625 430.196 234.281C428.943 233.937 427.826 233.214 426.998 232.211L426.991 232.205C426.875 231.716 426.815 231.216 426.814 230.713C426.815 229.412 427.216 228.142 427.963 227.078C428.711 226.013 429.769 225.206 430.992 224.765C432.215 224.325 433.544 224.273 434.798 224.617C436.051 224.961 437.168 225.684 437.996 226.687C437.996 226.688 437.996 226.688 437.997 226.689C437.997 226.69 437.997 226.691 437.998 226.691C437.999 226.692 437.999 226.692 438 226.693C438.001 226.693 438.002 226.693 438.003 226.693C438.119 227.182 438.178 227.682 438.179 228.185Z" fill="black"/>
<path d="M434.391 238.298C437.878 238.298 440.705 235.468 440.705 231.977C440.705 228.486 437.878 225.656 434.391 225.656C430.904 225.656 428.077 228.486 428.077 231.977C428.077 235.468 430.904 238.298 434.391 238.298Z" fill="#34CADB"/>
<path d="M438.179 276.224C438.179 277.525 437.778 278.795 437.03 279.859C436.283 280.924 435.225 281.731 434.002 282.172C432.779 282.612 431.45 282.664 430.196 282.32C428.943 281.976 427.826 281.253 426.998 280.25L426.991 280.244C426.388 279.511 425.957 278.651 425.731 277.729C425.505 276.806 425.49 275.844 425.686 274.915C425.882 273.986 426.286 273.113 426.865 272.361C427.445 271.609 428.187 270.997 429.035 270.572C429.884 270.147 430.817 269.918 431.766 269.904C432.714 269.889 433.654 270.089 434.515 270.488C435.376 270.887 436.136 271.475 436.739 272.209C437.342 272.943 437.771 273.803 437.996 274.726C437.996 274.727 437.996 274.727 437.997 274.728C437.997 274.729 437.997 274.73 437.998 274.73C437.999 274.731 437.999 274.731 438 274.732C438.001 274.732 438.002 274.732 438.003 274.732C438.119 275.221 438.179 275.721 438.179 276.224Z" fill="#34CADB"/>
<path opacity="0.1" d="M438.179 276.224C438.179 277.525 437.778 278.794 437.03 279.859C436.283 280.923 435.225 281.731 434.002 282.171C432.779 282.612 431.45 282.664 430.196 282.32C428.943 281.976 427.826 281.253 426.998 280.25L426.991 280.244C426.875 279.755 426.815 279.254 426.814 278.752C426.815 277.451 427.216 276.181 427.963 275.117C428.711 274.052 429.769 273.245 430.992 272.804C432.215 272.364 433.544 272.312 434.798 272.656C436.051 273 437.168 273.723 437.996 274.726C437.996 274.726 437.996 274.727 437.997 274.728C437.997 274.729 437.997 274.73 437.998 274.73C437.999 274.731 437.999 274.731 438 274.731C438.001 274.732 438.002 274.732 438.003 274.732C438.119 275.221 438.178 275.721 438.179 276.224Z" fill="black"/>
<path d="M434.391 286.337C437.878 286.337 440.705 283.507 440.705 280.016C440.705 276.525 437.878 273.695 434.391 273.695C430.904 273.695 428.077 276.525 428.077 280.016C428.077 283.507 430.904 286.337 434.391 286.337Z" fill="#34CADB"/>
<path d="M328.319 30.3403H295.487V63.2091H328.319V30.3403Z" fill="#F0F0F0"/>
<path d="M423.658 54.3599C422.159 54.3599 420.694 53.915 419.448 53.0816C418.202 52.2481 417.231 51.0635 416.658 49.6775C416.084 48.2915 415.934 46.7664 416.227 45.295C416.519 43.8237 417.24 42.4721 418.3 41.4113C419.36 40.3505 420.71 39.6281 422.179 39.3354C423.649 39.0428 425.173 39.193 426.557 39.7671C427.941 40.3412 429.125 41.3134 429.957 42.5607C430.79 43.8081 431.234 45.2746 431.234 46.7748C431.232 48.7858 430.433 50.7138 429.013 52.1358C427.592 53.5578 425.666 54.3576 423.658 54.3599ZM423.658 40.4539C422.409 40.4539 421.188 40.8246 420.15 41.5191C419.111 42.2137 418.302 43.2009 417.824 44.3559C417.346 45.5109 417.221 46.7818 417.465 48.0079C417.709 49.2341 418.31 50.3604 419.193 51.2444C420.076 52.1283 421.201 52.7303 422.426 52.9742C423.65 53.2181 424.92 53.093 426.074 52.6145C427.227 52.1361 428.213 51.326 428.907 50.2865C429.601 49.247 429.971 48.0249 429.971 46.7748C429.969 45.099 429.304 43.4923 428.12 42.3073C426.936 41.1224 425.331 40.4558 423.658 40.4539Z" fill="#3F3D56"/>
<path d="M256.973 159.919H240.557V143.485H256.973V159.919ZM241.819 158.655H255.71V144.749H241.819V158.655Z" fill="#3F3D56"/>
<path d="M507 282.545H490.584V266.11H507V282.545ZM491.847 281.28H505.737V267.375H491.847V281.28Z" fill="#3F3D56"/>
<path d="M183.103 172.35L185.92 173.869L195.505 179.041L210.981 187.388L219.999 170.637C220.849 169.063 221.38 167.337 221.562 165.557C221.744 163.778 221.574 161.979 221.061 160.266C220.548 158.552 219.703 156.956 218.573 155.57C217.444 154.184 216.052 153.034 214.478 152.187C211.115 150.369 207.262 149.666 203.474 150.181C199.687 150.695 196.16 152.4 193.402 155.05L193.397 155.055C192.04 156.359 190.895 157.868 190.004 159.526L183.103 172.35Z" fill="#2F2E41"/>
<path d="M225.34 343.186L223.45 364.006L216.36 364.952L211.633 341.292L225.34 343.186Z" fill="#FFB8B8"/>
<path d="M214.469 364.952C214.469 364.952 223.45 360.22 225.34 364.006C225.34 364.006 223.922 375.363 229.594 376.782C235.267 378.202 237.63 388.139 229.594 389.086C221.559 390.032 216.36 387.193 213.524 387.193C210.688 387.193 213.524 377.256 213.524 377.256L214.469 364.952Z" fill="#2F2E41"/>
<path d="M168.147 343.186L170.038 364.006L177.128 364.952L181.855 341.292L168.147 343.186Z" fill="#FFB8B8"/>
<path d="M179.019 364.952C179.019 364.952 170.038 360.22 168.147 364.006C168.147 364.006 169.565 375.363 163.893 376.782C158.221 378.202 155.858 388.139 163.893 389.086C171.929 390.032 177.128 387.193 179.964 387.193C182.8 387.193 179.964 377.256 179.964 377.256L179.019 364.952Z" fill="#2F2E41"/>
<path d="M206.906 176.145C213.694 176.145 219.196 170.637 219.196 163.842C219.196 157.047 213.694 151.539 206.906 151.539C200.119 151.539 194.617 157.047 194.617 163.842C194.617 170.637 200.119 176.145 206.906 176.145Z" fill="#FFB8B8"/>
<path d="M167.675 187.975L177.601 203.591L189.417 202.644L208.797 204.064C208.797 204.064 210.626 200.401 212.12 196.838C212.938 195.059 213.567 193.198 213.996 191.287C214.469 187.975 207.852 184.663 207.852 184.663C207.852 184.663 207.592 184.615 207.157 184.511C206.58 184.374 205.691 184.147 204.718 183.816C202.52 183.068 199.878 181.8 199.343 179.931C198.398 176.618 205.488 171.886 205.488 171.886L196.98 163.842C196.98 163.842 189.422 174.352 180.243 176.746C179.711 176.887 179.171 176.997 178.626 177.077C178.598 177.082 178.574 177.087 178.546 177.091C168.62 178.511 167.675 187.975 167.675 187.975Z" fill="#FFB8B8"/>
<path d="M172.874 183.716L167.675 187.975C167.675 187.975 163.421 208.323 164.839 214.001C166.257 219.68 164.366 224.885 164.366 225.831C164.366 226.778 160.112 262.268 160.112 262.268C160.112 262.268 151.604 281.196 160.584 279.303C169.565 277.41 166.257 258.482 166.257 258.482L177.128 225.358V197.439L172.874 183.716Z" fill="#FFB8B8"/>
<path d="M210.215 187.502L213.996 190.341L215.887 230.09L230.067 264.161C230.067 264.161 240.466 280.723 233.848 281.196C227.231 281.669 222.977 264.161 222.977 264.161L210.215 231.51L208.324 199.805L210.215 187.502Z" fill="#FFB8B8"/>
<path d="M186.581 190.341C186.581 190.341 196.035 196.966 211.16 194.6C211.16 194.6 215.414 203.118 213.051 207.85C210.688 212.582 215.887 223.938 216.832 225.358C217.778 226.778 228.649 256.116 232.43 287.821C236.212 319.525 246.611 341.292 237.63 344.132C228.649 346.971 210.215 350.283 208.324 347.444C206.434 344.605 203.598 274.098 203.598 274.098L198.398 301.07C198.398 301.07 205.488 346.971 200.289 347.917C195.089 348.864 162.475 346.024 163.42 340.346C164.366 334.668 173.819 304.856 173.819 304.856C173.819 304.856 173.347 245.232 182.8 233.876C182.8 233.876 186.581 227.724 181.382 219.68C176.183 211.635 176.655 198.859 176.655 198.859C176.655 198.859 180.437 198.859 186.581 190.341Z" fill="#2F2E41"/>
<path d="M178.626 177.077L186.582 194.6L188.472 193.654L180.243 176.746L178.626 177.077Z" fill="#2F2E41"/>
<path d="M204.718 183.816L210.688 196.966L212.12 196.838L211.633 194.6L207.157 184.511C206.58 184.374 205.691 184.147 204.718 183.816Z" fill="#2F2E41"/>
<path d="M185.92 173.869C186.374 175.333 187.25 176.63 188.438 177.598C189.625 178.565 191.072 179.161 192.596 179.309C194.12 179.458 195.654 179.153 197.005 178.433C198.357 177.712 199.466 176.609 200.194 175.26C194.215 167.433 199.343 162.517 209.057 158.797C209.789 157.438 210.1 155.891 209.951 154.354C209.802 152.817 209.199 151.36 208.22 150.166C205.543 149.823 202.823 150.084 200.259 150.929C197.695 151.774 195.352 153.182 193.402 155.05L193.397 155.054L186.496 167.869C186.005 168.78 185.701 169.78 185.602 170.81C185.503 171.841 185.611 172.881 185.92 173.869Z" fill="#2F2E41"/>
<path d="M199.58 168.101C200.494 168.101 201.234 166.829 201.234 165.261C201.234 163.693 200.494 162.422 199.58 162.422C198.666 162.422 197.925 163.693 197.925 165.261C197.925 166.829 198.666 168.101 199.58 168.101Z" fill="#FFB8B8"/>
<path d="M204.51 160.629L218.718 167.074L221.323 161.32C220.874 159.217 219.935 157.25 218.581 155.58L208.802 151.146L204.51 160.629Z" fill="#2F2E41"/>
<path d="M238.663 287.601C242.15 287.601 244.976 284.771 244.976 281.28C244.976 277.789 242.15 274.959 238.663 274.959C235.175 274.959 232.349 277.789 232.349 281.28C232.349 284.771 235.175 287.601 238.663 287.601Z" fill="#34CADB"/>
<path d="M35.9613 325.177C38.2402 325.177 40.0877 323.327 40.0877 321.046C40.0877 318.765 38.2402 316.915 35.9613 316.915C33.6824 316.915 31.835 318.765 31.835 321.046C31.835 323.327 33.6824 325.177 35.9613 325.177Z" fill="#FF6584"/>
<path d="M56.8087 342.576H55.5459V389.611H56.8087V342.576Z" fill="#3F3D56"/>
<path d="M56.1774 349.227C59.8468 349.227 62.8213 346.249 62.8213 342.576C62.8213 338.902 59.8468 335.924 56.1774 335.924C52.5081 335.924 49.5335 338.902 49.5335 342.576C49.5335 346.249 52.5081 349.227 56.1774 349.227Z" fill="#3F3D56"/>
<path d="M56.1774 371.564C56.1774 371.564 55.2283 351.127 35.7711 353.503L56.1774 371.564Z" fill="#3F3D56"/>
</g>
<defs>
<clipPath id="clip0">
<rect width="507" height="390" fill="white"/>
</clipPath>
</defs>
</svg>
